<svg xmlns="http://www.w3.org/2000/svg" viewBox="0 0 512 512">
<defs><linearGradient id="g" x1="0" y1="0" x2="1" y2="1"><stop stop-color="#12dfff"/><stop offset=".52" stop-color="#703cff"/><stop offset="1" stop-color="#ff3fd2"/></linearGradient></defs>
<rect width="512" height="512" rx="116" fill="#090d29"/><circle cx="256" cy="225" r="150" fill="url(#g)"/>
<circle cx="256" cy="225" r="108" fill="#111735" stroke="#ffd03f" stroke-width="22"/>
<path d="M238 167l82 58-82 58z" fill="#ffd03f"/>
<path d="M256 75v-28m-43 33l-12-26m86 26l12-26" stroke="#ffd03f" stroke-width="16" stroke-linecap="round"/>
<circle cx="170" cy="360" r="54" fill="#19dcff"/><circle cx="342" cy="360" r="54" fill="#ff4fd2"/>
<path d="M135 355c20-42 50-50 70-28l-22 67c-24 6-39-7-48-39zm207 0c-20-42-50-50-70-28l22 67c24 6 39-7 48-39z" fill="#172044"/>
<circle cx="155" cy="350" r="8" fill="#fff"/><circle cx="357" cy="350" r="8" fill="#fff"/>
</svg>